<?xml version="1.0" encoding="iso-8859-1"?>
<!-- Generator: Adobe Illustrator 19.0.0, SVG Export Plug-In . SVG Version: 6.00 Build 0)  -->
<svg version="1.1" id="Capa_1" xmlns="http://www.w3.org/2000/svg" xmlns:xlink="http://www.w3.org/1999/xlink" x="0px" y="0px"
	 viewBox="0 0 512 512" style="enable-background:new 0 0 512 512;" xml:space="preserve">
<g>
	<g>
		<path d="M415.981,325.99c-5.52,0-9.999,4.48-9.999,9.999s4.48,9.999,9.999,9.999c5.52,0,9.999-4.48,9.999-9.999
			S421.501,325.99,415.981,325.99z"/>
	</g>
</g>
<g>
	<g>
		<path d="M295.989,325.99c-5.52,0-9.999,4.48-9.999,9.999s4.48,9.999,9.999,9.999s9.999-4.48,9.999-9.999
			S301.509,325.99,295.989,325.99z"/>
	</g>
</g>
<g>
	<g>
		<path d="M275.991,126.004c-5.52,0-9.999,4.48-9.999,9.999c0,5.52,4.48,9.999,9.999,9.999s9.999-4.48,9.999-9.999
			C285.99,130.484,281.51,126.004,275.991,126.004z"/>
	</g>
</g>
<g>
	<g>
		<path d="M175.998,86.007c-5.52,0-9.999,4.48-9.999,9.999c0,5.52,4.48,9.999,9.999,9.999s9.999-4.48,9.999-9.999
			C185.997,90.487,181.517,86.007,175.998,86.007z"/>
	</g>
</g>
<g>
	<g>
		<path d="M76.005,285.993c-5.52,0-9.999,4.48-9.999,9.999s4.48,9.999,9.999,9.999c5.52,0,9.999-4.48,9.999-9.999
			S81.524,285.993,76.005,285.993z"/>
	</g>
</g>
<g>
	<g>
		<path d="M438.76,73.227c-97.654-97.645-267.9-97.626-365.537,0c-97.581,97.591-97.68,267.847,0.001,365.536
			c98.08,98.072,268.299,97.226,365.536,0C536.953,340.56,535.871,170.348,438.76,73.227z M424.619,424.622
			c-89.831,89.821-247.426,89.821-337.254,0c-89.82-89.83-89.82-247.425-0.001-337.254c89.828-89.819,247.426-89.822,337.254,0
			C514.439,177.197,514.439,334.792,424.619,424.622z"/>
	</g>
</g>
<g>
	<g>
		<path d="M350.538,91.181c-42.383-24.292-92.005-31.281-139.735-19.681c-5.366,1.305-8.658,6.711-7.353,12.078
			c1.304,5.366,6.701,8.656,12.078,7.354c42.73-10.386,87.145-4.137,125.066,17.598c4.806,2.755,10.91,1.073,13.647-3.703
			C356.986,100.037,355.329,93.927,350.538,91.181z"/>
	</g>
</g>
<g>
	<g>
		<path d="M245.897,136.062c-0.912-5.447-6.064-9.122-11.513-8.211c-26.774,4.481-51.085,17.009-70.306,36.229
			c-3.905,3.905-3.905,10.236,0,14.141c3.906,3.905,10.235,3.905,14.142,0c16.259-16.259,36.82-26.856,59.465-30.646
			C243.131,146.664,246.808,141.51,245.897,136.062z"/>
	</g>
</g>
<g>
	<g>
		<path d="M337.197,174.79c-11.723-11.723-30.695-11.724-42.419,0l-8.373,8.374c-9.775,9.76-24.643,12.171-36.986,6.004
			c-14.828-7.419-32.822-1.447-40.259,13.413c-7.393,14.8-1.376,32.856,13.416,40.252c34.569,17.27,77.413,11.586,106.243-17.244
			l8.379-8.38C348.919,205.487,348.923,186.513,337.197,174.79z M323.055,203.068l-8.379,8.379
			c-22.541,22.542-56.056,27.036-83.161,13.496c-4.929-2.465-6.932-8.487-4.469-13.419c2.471-4.935,8.444-6.962,13.427-4.47
			c20.052,10.02,44.189,6.11,60.067-9.743l8.379-8.379c3.908-3.907,10.227-3.908,14.136,0
			C326.963,192.838,326.963,199.159,323.055,203.068z"/>
	</g>
</g>
<g>
	<g>
		<path d="M185.997,265.994c-44.109,0-79.994,35.885-79.994,79.994s35.885,79.994,79.994,79.994
			c44.109,0,79.994-35.885,79.994-79.994S230.106,265.994,185.997,265.994z M185.997,405.984c-33.082,0-59.996-26.914-59.996-59.996
			s26.914-59.996,59.996-59.996c33.082,0,59.996,26.914,59.996,59.996S219.079,405.984,185.997,405.984z"/>
	</g>
</g>
<g>
	<g>
		<path d="M195.996,305.991c-16.541,0-29.998,13.457-29.998,29.998s13.457,29.998,29.998,29.998s29.998-13.457,29.998-29.998
			S212.537,305.991,195.996,305.991z M195.996,345.989c-5.514,0-9.999-4.486-9.999-9.999s4.486-9.999,9.999-9.999
			s9.999,4.486,9.999,9.999S201.509,345.989,195.996,345.989z"/>
	</g>
</g>
<g>
	<g>
		<path d="M96.003,186c-16.541,0-29.998,13.457-29.998,29.998s13.457,29.998,29.998,29.998s29.998-13.457,29.998-29.998
			S112.544,186,96.003,186z M96.003,225.997c-5.514,0-9.999-4.486-9.999-9.999s4.486-9.999,9.999-9.999s9.999,4.486,9.999,9.999
			S101.516,225.997,96.003,225.997z"/>
	</g>
</g>
<g>
	<g>
		<path d="M415.981,245.996h-59.996c-16.574,0-29.998,13.423-29.998,29.998c0,16.541,13.457,29.998,29.998,29.998h59.996
			c16.574,0,29.998-13.423,29.998-29.998C445.979,259.453,432.522,245.996,415.981,245.996z M415.981,285.993h-59.996
			c-5.514,0-9.999-4.486-9.999-9.999c0-5.522,4.479-9.999,9.999-9.999h59.996c5.513,0,9.999,4.486,9.999,9.999
			C425.98,281.515,421.502,285.993,415.981,285.993z"/>
	</g>
</g>
<g>
	<g>
		<path d="M378.412,353.552c-11.705-11.687-30.737-11.685-42.426,0.005l-42.437,42.436c-11.65,11.682-11.773,30.606,0.015,42.424
			c11.698,11.682,30.731,11.691,42.425-0.004l42.428-42.427c0.003-0.003,0.006-0.007,0.01-0.01
			C390.077,384.294,390.2,365.37,378.412,353.552z M364.273,381.846l-42.427,42.426c-3.897,3.897-10.244,3.896-14.138,0.009
			c-3.931-3.941-3.908-10.247-0.009-14.156l42.428-42.427c3.89-3.889,10.237-3.905,14.138-0.009
			C368.171,371.606,368.198,377.901,364.273,381.846z"/>
	</g>
</g>
<g>
	<g>
		<path d="M405.982,166.001c-11.027,0-19.999,8.971-19.999,19.999s8.971,19.999,19.999,19.999S425.98,197.027,425.98,186
			S417.009,166.001,405.982,166.001z"/>
	</g>
</g>
<g>
</g>
<g>
</g>
<g>
</g>
<g>
</g>
<g>
</g>
<g>
</g>
<g>
</g>
<g>
</g>
<g>
</g>
<g>
</g>
<g>
</g>
<g>
</g>
<g>
</g>
<g>
</g>
<g>
</g>
</svg>
