<svg enable-background="new 0 0 60 60" height="512" viewBox="0 0 60 60" width="512" xmlns="http://www.w3.org/2000/svg"><path d="m59 60h-58c-.552 0-1-.447-1-1v-4c0-.553.448-1 1-1h58c.552 0 1 .447 1 1v4c0 .553-.448 1-1 1zm-57-2h56v-2h-56z"/><path d="m12 50c-3.308 0-6-2.691-6-6v-33c0-.553.448-1 1-1h10c.552 0 1 .447 1 1v33c0 3.309-2.692 6-6 6zm-4-38v32c0 2.206 1.794 4 4 4s4-1.794 4-4v-32z"/><path d="m17 8h-10c-.552 0-1-.447-1-1v-6c0-.553.448-1 1-1h10c.552 0 1 .447 1 1v6c0 .553-.448 1-1 1zm-9-2h8v-4h-8z"/><path d="m19 12h-14c-.552 0-1-.447-1-1v-4c0-.553.448-1 1-1h14c.552 0 1 .447 1 1v4c0 .553-.448 1-1 1zm-13-2h12v-2h-12z"/><path d="m12 50c-3.308 0-6-2.691-6-6v-19c0-.553.448-1 1-1h10c.552 0 1 .447 1 1v19c0 3.309-2.692 6-6 6zm-4-24v18c0 2.206 1.794 4 4 4s4-1.794 4-4v-18z"/><path d="m11 31c-.256 0-.512-.098-.707-.293-.391-.391-.391-1.023 0-1.414l1-1c.39-.391 1.024-.391 1.414 0 .391.391.391 1.023 0 1.414l-1 1c-.195.195-.451.293-.707.293z"/><path d="m11 43c-.256 0-.512-.098-.707-.293-.391-.391-.391-1.023 0-1.414l1-1c.39-.391 1.024-.391 1.414 0 .391.391.391 1.023 0 1.414l-1 1c-.195.195-.451.293-.707.293z"/><path d="m13 37c-.256 0-.512-.098-.707-.293l-1-1c-.391-.391-.391-1.023 0-1.414.39-.391 1.024-.391 1.414 0l1 1c.391.391.391 1.023 0 1.414-.195.195-.451.293-.707.293z"/><path d="m30 50c-3.308 0-6-2.691-6-6v-33c0-.553.448-1 1-1h10c.552 0 1 .447 1 1v33c0 3.309-2.692 6-6 6zm-4-38v32c0 2.206 1.794 4 4 4s4-1.794 4-4v-32z"/><path d="m35 8h-10c-.552 0-1-.447-1-1v-6c0-.553.448-1 1-1h10c.552 0 1 .447 1 1v6c0 .553-.448 1-1 1zm-9-2h8v-4h-8z"/><path d="m37 12h-14c-.552 0-1-.447-1-1v-4c0-.553.448-1 1-1h14c.552 0 1 .447 1 1v4c0 .553-.448 1-1 1zm-13-2h12v-2h-12z"/><path d="m30 50c-3.308 0-6-2.691-6-6v-13c0-.553.448-1 1-1h10c.552 0 1 .447 1 1v13c0 3.309-2.692 6-6 6zm-4-18v12c0 2.206 1.794 4 4 4s4-1.794 4-4v-12z"/><path d="m29 44c-.256 0-.512-.098-.707-.293-.391-.391-.391-1.023 0-1.414l1-1c.39-.391 1.024-.391 1.414 0 .391.391.391 1.023 0 1.414l-1 1c-.195.195-.451.293-.707.293z"/><path d="m31 38c-.256 0-.512-.098-.707-.293l-1-1c-.391-.391-.391-1.023 0-1.414.39-.391 1.024-.391 1.414 0l1 1c.391.391.391 1.023 0 1.414-.195.195-.451.293-.707.293z"/><path d="m48 50c-3.308 0-6-2.691-6-6v-33c0-.553.448-1 1-1h10c.552 0 1 .447 1 1v33c0 3.309-2.692 6-6 6zm-4-38v32c0 2.206 1.794 4 4 4s4-1.794 4-4v-32z"/><path d="m53 8h-10c-.552 0-1-.447-1-1v-6c0-.553.448-1 1-1h10c.552 0 1 .447 1 1v6c0 .553-.448 1-1 1zm-9-2h8v-4h-8z"/><path d="m55 12h-14c-.552 0-1-.447-1-1v-4c0-.553.448-1 1-1h14c.552 0 1 .447 1 1v4c0 .553-.448 1-1 1zm-13-2h12v-2h-12z"/><path d="m48 50c-3.308 0-6-2.691-6-6v-25c0-.553.448-1 1-1h10c.552 0 1 .447 1 1v25c0 3.309-2.692 6-6 6zm-4-30v24c0 2.206 1.794 4 4 4s4-1.794 4-4v-24z"/><path d="m47 31c-.256 0-.512-.098-.707-.293-.391-.391-.391-1.023 0-1.414l1-1c.39-.391 1.024-.391 1.414 0 .391.391.391 1.023 0 1.414l-1 1c-.195.195-.451.293-.707.293z"/><path d="m47 43c-.256 0-.512-.098-.707-.293-.391-.391-.391-1.023 0-1.414l1-1c.39-.391 1.024-.391 1.414 0 .391.391.391 1.023 0 1.414l-1 1c-.195.195-.451.293-.707.293z"/><path d="m49 37c-.256 0-.512-.098-.707-.293l-1-1c-.391-.391-.391-1.023 0-1.414.39-.391 1.024-.391 1.414 0l1 1c.391.391.391 1.023 0 1.414-.195.195-.451.293-.707.293z"/><path d="m49 25c-.256 0-.512-.098-.707-.293l-1-1c-.391-.391-.391-1.023 0-1.414.39-.391 1.024-.391 1.414 0l1 1c.391.391.391 1.023 0 1.414-.195.195-.451.293-.707.293z"/><path d="m3 56c-.552 0-1-.447-1-1v-35c0-.553.448-1 1-1h4c.552 0 1 .447 1 1s-.448 1-1 1h-3v34c0 .553-.448 1-1 1z"/><path d="m57 56c-.552 0-1-.447-1-1v-34h-3c-.552 0-1-.447-1-1s.448-1 1-1h4c.552 0 1 .447 1 1v35c0 .553-.448 1-1 1z"/><path d="m25 21h-8c-.552 0-1-.447-1-1s.448-1 1-1h8c.552 0 1 .447 1 1s-.448 1-1 1z"/><path d="m43 21h-8c-.552 0-1-.447-1-1s.448-1 1-1h8c.552 0 1 .447 1 1s-.448 1-1 1z"/></svg>