<?xml version="1.0" encoding="iso-8859-1"?>
<!-- Generator: Adobe Illustrator 19.0.0, SVG Export Plug-In . SVG Version: 6.00 Build 0)  -->
<svg version="1.1" id="Capa_1" xmlns="http://www.w3.org/2000/svg" xmlns:xlink="http://www.w3.org/1999/xlink" x="0px" y="0px"
	 viewBox="0 0 480 480" style="enable-background:new 0 0 480 480;" xml:space="preserve">
<g>
	<g>
		<path d="M416,104c0-13.13-6.446-24.702-16.248-32C409.554,64.702,416,53.13,416,40c0-22.055-17.945-40-40-40
			c-19.315,0-35.474,13.766-39.191,32H143.191C139.474,13.766,123.315,0,104,0C81.945,0,64,17.945,64,40
			c0,13.13,6.446,24.702,16.248,32C70.446,79.298,64,90.87,64,104c0,20.559,15.651,37.348,35.631,39.558
			C97.347,148.587,96,154.126,96,160c0,22.055,17.945,40,40,40c3.164,0,6.205-0.461,9.159-1.159
			C144.461,201.795,144,204.836,144,208c0,6.961,1.863,13.875,5.383,19.988c2.74,4.766,6.415,8.812,10.696,12.012
			c-4.28,3.199-7.954,7.244-10.692,12.008C145.863,258.125,144,265.039,144,272c0,3.164,0.461,6.205,1.159,9.159
			C142.205,280.461,139.164,280,136,280c-22.055,0-40,17.945-40,40c0,5.874,1.347,11.413,3.631,16.442
			C79.651,338.652,64,355.441,64,376c0,13.13,6.446,24.702,16.248,32C70.446,415.298,64,426.87,64,440c0,22.055,17.945,40,40,40
			c19.315,0,35.474-13.766,39.191-32h193.617c3.717,18.234,19.876,32,39.191,32c22.055,0,40-17.945,40-40
			c0-13.13-6.446-24.702-16.248-32c9.802-7.298,16.248-18.87,16.248-32c0-20.559-15.651-37.348-35.631-39.558
			C382.653,331.413,384,325.874,384,320c0-22.055-17.945-40-40-40c-3.164,0-6.205,0.461-9.159,1.159
			c0.698-2.954,1.159-5.995,1.159-9.159c0-6.961-1.863-13.875-5.383-19.988c-2.74-4.766-6.415-8.812-10.696-12.012
			c4.28-3.199,7.954-7.244,10.692-12.008C334.137,221.875,336,214.961,336,208c0-3.164-0.461-6.205-1.159-9.159
			c2.954,0.698,5.995,1.159,9.159,1.159c22.055,0,40-17.945,40-40c0-5.874-1.347-11.413-3.631-16.442
			C400.349,141.348,416,124.559,416,104z M376,16c13.234,0,24,10.766,24,24s-10.766,24-24,24s-24-10.766-24-24S362.766,16,376,16z
			 M143.191,48h193.617c2,9.81,7.682,18.225,15.439,24c-7.757,5.775-13.439,14.19-15.439,24H143.191c-2-9.81-7.682-18.225-15.439-24
			C135.509,66.225,141.192,57.81,143.191,48z M304.809,312H296H184h-8.809c-0.082-0.401-0.256-0.762-0.35-1.159
			c2.954,0.698,5.995,1.159,9.159,1.159c20.559,0,37.348-15.651,39.558-35.631C228.587,278.653,234.126,280,240,280
			s11.413-1.347,16.442-3.631c2.21,19.979,19,35.631,39.558,35.631c3.164,0,6.205-0.461,9.159-1.159
			C305.065,311.238,304.89,311.599,304.809,312z M339.631,359.558c-1.219,2.684-2.219,5.483-2.822,8.442H143.191
			c-0.603-2.959-1.604-5.758-2.822-8.442c17.317-1.916,31.393-14.736,34.822-31.558h129.617
			C308.238,344.822,322.313,357.642,339.631,359.558z M216,240c0-13.234,10.766-24,24-24s24,10.766,24,24s-10.766,24-24,24
			S216,253.234,216,240z M256.442,203.631C251.413,201.347,245.874,200,240,200s-11.413,1.347-16.442,3.631
			C221.348,183.651,204.559,168,184,168c-3.164,0-6.205,0.461-9.159,1.159c0.698-2.954,1.159-5.995,1.159-9.159h128
			c0,3.164,0.461,6.205,1.159,9.159C302.205,168.461,299.164,168,296,168C275.441,168,258.652,183.651,256.442,203.631z
			 M172.609,144c-5.624-12.812-17.795-21.96-32.24-23.558c1.219-2.684,2.219-5.483,2.822-8.442h193.617
			c0.603,2.959,1.604,5.758,2.822,8.442c-14.445,1.598-26.616,10.746-32.24,23.558H172.609z M80,40c0-13.234,10.766-24,24-24
			s24,10.766,24,24s-10.766,24-24,24S80,53.234,80,40z M104,128c-13.234,0-24-10.766-24-24s10.766-24,24-24s24,10.766,24,24
			S117.234,128,104,128z M136,184c-13.234,0-24-10.766-24-24s10.766-24,24-24s24,10.766,24,24S149.234,184,136,184z M160,208
			c0-13.234,10.766-24,24-24s24,10.766,24,24c0,4.223-1.094,8.262-3.258,12.012C200.492,227.406,192.547,232,184,232
			s-16.492-4.594-20.746-11.992C161.094,216.262,160,212.223,160,208z M163.258,259.988C167.508,252.594,175.453,248,184,248
			s16.492,4.594,20.746,11.992c2.16,3.746,3.254,7.785,3.254,12.008c0,13.234-10.766,24-24,24s-24-10.766-24-24
			C160,267.777,161.094,263.738,163.258,259.988z M136,296c13.234,0,24,10.766,24,24s-10.766,24-24,24s-24-10.766-24-24
			S122.766,296,136,296z M80,376c0-13.234,10.766-24,24-24s24,10.766,24,24s-10.766,24-24,24S80,389.234,80,376z M104,464
			c-13.234,0-24-10.766-24-24s10.766-24,24-24s24,10.766,24,24S117.234,464,104,464z M336.809,432H143.191
			c-2-9.81-7.682-18.225-15.439-24c7.757-5.775,13.439-14.19,15.439-24h193.617c2,9.81,7.682,18.225,15.439,24
			C344.491,413.775,338.808,422.19,336.809,432z M400,440c0,13.234-10.766,24-24,24s-24-10.766-24-24s10.766-24,24-24
			S400,426.766,400,440z M376,352c13.234,0,24,10.766,24,24s-10.766,24-24,24s-24-10.766-24-24S362.766,352,376,352z M344,296
			c13.234,0,24,10.766,24,24s-10.766,24-24,24s-24-10.766-24-24S330.766,296,344,296z M320,272c0,13.234-10.766,24-24,24
			s-24-10.766-24-24c0-4.223,1.094-8.262,3.258-12.012C279.508,252.594,287.453,248,296,248s16.492,4.594,20.746,11.992
			C318.906,263.738,320,267.777,320,272z M316.742,220.012C312.492,227.406,304.547,232,296,232s-16.492-4.594-20.746-11.992
			C273.094,216.262,272,212.223,272,208c0-13.234,10.766-24,24-24s24,10.766,24,24C320,212.223,318.906,216.262,316.742,220.012z
			 M344,184c-13.234,0-24-10.766-24-24s10.766-24,24-24s24,10.766,24,24S357.234,184,344,184z M376,128c-13.234,0-24-10.766-24-24
			s10.766-24,24-24s24,10.766,24,24S389.234,128,376,128z"/>
	</g>
</g>
<g>
</g>
<g>
</g>
<g>
</g>
<g>
</g>
<g>
</g>
<g>
</g>
<g>
</g>
<g>
</g>
<g>
</g>
<g>
</g>
<g>
</g>
<g>
</g>
<g>
</g>
<g>
</g>
<g>
</g>
</svg>
