<?xml version='1.0' encoding='utf-8'?>
<svg xmlns="http://www.w3.org/2000/svg" version="1.1" id="Layer_1" x="0px" y="0px" viewBox="0 0 2650 598" enable-background="new 0 0 2650 598"> <g> <g> <g> <path fill="none" stroke="#000000" stroke-width="7.097" stroke-linecap="round" stroke-linejoin="round" stroke-miterlimit="10" d=" M45,382.691h133.904l19.438-58.313l18.358,58.313h19.438l8.639,26.997l21.598-371.475l32.396,523.736l17.278-179.258l46.434-1.08 c0,0,38.875-53.993,82.07,0l66.952-1.08l22.677-56.153l18.358,53.993l18.358,2.16l7.559,28.076l24.837-361.755l31.316,515.097 l16.198-181.418l52.914,2.16c1.921-0.174,36.677-54.212,79.911-1.08l125.264-1.08"/> </g> </g> <g> <g> <path fill="none" stroke="#000000" stroke-width="7.097" stroke-linecap="round" stroke-linejoin="round" stroke-miterlimit="10" d=" M1741.105,380.529h133.904l19.438-58.313l18.358,58.313h19.438l8.639,26.997l21.598-371.475l32.396,523.736l17.278-179.258 l46.434-1.08c0,0,38.875-53.993,82.07,0l66.952-1.08l22.677-56.153l18.358,53.993l18.358,2.16l7.559,28.076l24.837-361.755 l31.316,515.097l16.198-181.418l52.914,2.16c1.921-0.174,36.677-54.212,79.91-1.08l125.264-1.08"/> </g> </g> <g> <path fill="none" stroke="#000000" stroke-width="7.097" d="M908.895,380.529v-214.83c13.548-2.258,31.289-4.193,53.869-4.193 c27.741,0,48.062,6.451,60.965,18.064c11.935,10.322,19.032,26.128,19.032,45.482c0,19.677-5.806,35.16-16.774,46.45 c-14.838,15.806-39.031,23.87-66.448,23.87c-8.387,0-16.129-0.323-22.58-1.935v87.093h143.54"/> <path fill="none" stroke="#000000" stroke-width="7.097" d="M1080.499,429.601 M1080.499,380.529v-217.41h117.415v23.548h-89.351 v68.707h84.512v23.225h-84.512v78.384h94.189v23.548h19.995"/> <path fill="none" stroke="#000000" stroke-width="7.097" d="M1222.747,380.529l73.867-217.41h33.869l74.19,217.41l116.854,3.147"/> <path fill="none" stroke="#000000" stroke-width="7.097" d="M1521.527,383.676 M1539.988,383.282 M1521.527,383.676 c-58.904-1.958-102.662-40.485-102.662-109.917c0-68.062,46.128-114.189,113.544-114.189c27.095,0,44.191,5.806,51.61,9.677 l-6.774,22.902c-10.645-5.161-25.805-9.032-43.869-9.032c-50.966,0-84.835,32.579-84.835,89.673 c0,53.223,30.644,87.416,83.545,87.416c17.097,0,34.515-3.548,45.805-9.032l5.807,22.257c-8.462,4.231-23.861,8.462-43.709,9.85 h78.864v-2.753"/> <path fill="none" stroke="#000000" stroke-width="7.097" d="M1618.852,380.529v-217.41h117.415v23.548h-89.351v68.707h84.512 v23.225h-84.512v78.384h94.189v23.548"/> </g> </g> </svg>