<?xml version="1.0" encoding="UTF-8"?>
<svg viewBox="0 0 434.8172 426.90521" xmlns="http://www.w3.org/2000/svg" xmlns:xlink="http://www.w3.org/1999/xlink">
 <defs>
  <filter id="d">
   <feGaussianBlur stdDeviation="8.6769"/>
  </filter>
  <filter id="e" x="-1.7533" y="-.12751" width="4.5066" height="1.255">
   <feGaussianBlur stdDeviation="25.0472"/>
  </filter>
  <linearGradient id="a">
   <stop stop-color="#fff" offset="0"/>
   <stop stop-color="#fff" stop-opacity="0" offset="1"/>
  </linearGradient>
  <linearGradient id="c" x1="531.43" x2="668.57" y1="766.65" y2="909.51" gradientUnits="userSpaceOnUse" xlink:href="#a"/>
  <linearGradient id="b" x1="531.43" x2="668.57" y1="767.15" y2="910.01" gradientUnits="userSpaceOnUse" xlink:href="#a"/>
 </defs>
 <g transform="translate(-307.67 -626.26)">
  <path transform="matrix(.85681 .79465 -.61458 .66545 1530.6 772.96)" d="m-511.43 810.93c0 130.18-7.6751 235.71-17.143 235.71s-17.143-105.53-17.143-235.71 7.6751-235.71 17.143-235.71 17.143 105.53 17.143 235.71z" filter="url(#e)" stroke="#000" stroke-linecap="round" stroke-linejoin="round" stroke-width="3"/>
  <path d="m432.18 1042.9c17.331-108.65-5.1766-181.66-32.051-278.28 134.47-35.06 218.89-20.402 313.79 0.61261-123.92 110.65-173.38 179.98-281.74 277.67z" fill="#b3b3b3" filter="url(#d)"/>
  <path d="m425.45 1050.9c11.221-109.45 32.242-222.18 0-317.14 132.3-42.533 221.22-15.669 317.14 0-116.92 119.13-210.78 201.61-317.14 317.14z" fill="url(#c)"/>
  <path d="m425.45 734.22c132.3-42.533 221.22-15.669 317.14 0" fill="url(#b)" opacity=".4" stroke="#ccc" stroke-linecap="round" stroke-linejoin="round"/>
 </g>
</svg>
